<?xml version="1.0" encoding="UTF-8"?>
<svg version="1.1" xmlns="http://www.w3.org/2000/svg" width="600" height="591">
<path d="M0 0 C198 0 396 0 600 0 C600 195.03 600 390.06 600 591 C402 591 204 591 0 591 C0 395.97 0 200.94 0 0 Z " fill="#FBFBFB" transform="translate(0,0)"/>
<path d="M0 0 C61.83713678 -0.10193277 123.67440383 -0.16218844 185.51001358 0.34743118 C188.97405949 0.37479509 192.43811312 0.39869772 195.90219116 0.42160034 C235.11678325 0.68771226 269.42166358 2.59130235 306.62182617 16.13964844 C308.40563113 16.78497527 310.20039833 17.40013278 312 18 C312 18.66 312 19.32 312 20 C312.81210937 20.23589844 313.62421875 20.47179687 314.4609375 20.71484375 C340.40462447 30.13589564 363.58684535 51.98551977 380.5 73.3125 C381.0053125 73.94800781 381.510625 74.58351563 382.03125 75.23828125 C382.3509375 75.81964844 382.670625 76.40101563 383 77 C382 80 382 80 380.35546875 80.95703125 C379.64003906 81.23933594 378.92460937 81.52164063 378.1875 81.8125 C373.21823285 83.86710084 368.47568777 86.26418736 363.69921875 88.73046875 C361.40836481 89.80793261 359.44358828 90.43870116 357 91 C355.83984375 89.60587891 355.83984375 89.60587891 354.65625 88.18359375 C349.12959418 81.59932403 343.70283906 75.41719209 337 70 C335.69869141 68.85144531 335.69869141 68.85144531 334.37109375 67.6796875 C327.3347406 61.55215759 320.01173387 56.62716199 311.87939453 52.06591797 C310.09812723 51.05565387 308.34298929 49.99971976 306.58984375 48.94140625 C282.33159184 34.66228989 254.22519577 31.03937893 226.609375 30.71875 C225.31763367 30.70065781 224.02589233 30.68256561 222.69500732 30.66392517 C219.12928655 30.61441039 215.56351733 30.57034364 211.99771118 30.52747726 C209.73437735 30.49980902 207.47107004 30.47053103 205.20776367 30.44070435 C157.47364998 29.81202237 109.73629682 29.42123409 62 29 C62.61786377 30.10230957 63.23572754 31.20461914 63.87231445 32.34033203 C64.21986282 32.96038116 64.56741119 33.5804303 64.92549133 34.2192688 C67.60086656 38.65303866 71.45895449 42.25808481 75 46 C75.70253906 46.77859375 76.40507812 47.5571875 77.12890625 48.359375 C91.03994851 63.21831516 112.29867686 72.47206438 132.58944702 73.33306885 C138.99157652 73.47719339 145.39042802 73.39790902 151.79296875 73.3203125 C154.15650947 73.30773515 156.52006224 73.29726721 158.88362122 73.28878784 C165.0612687 73.26239302 171.23850792 73.21363526 177.41595459 73.15808105 C187.30985156 73.07129951 197.20385485 73.01204747 207.09801674 72.9659996 C210.52670047 72.94577708 213.95503755 72.91166618 217.3835907 72.87600708 C228.12632837 72.79299802 238.41958692 72.92823214 249 75 C249.71925659 75.12924362 250.43851318 75.25848724 251.17956543 75.39164734 C275.93255859 80.18371475 296.87742296 97.61627873 311.5390625 117.39453125 C313.29324871 120.52298634 314.06823486 122.38810121 314 126 C312.48683348 128.59141323 310.50547064 130.65235354 308.4375 132.8125 C307.32035194 134.0368475 306.20704351 135.26470978 305.09765625 136.49609375 C304.56027832 137.09019043 304.02290039 137.68428711 303.46923828 138.29638672 C300.99993009 141.1596025 299.02653511 144.28910815 297.0859375 147.5234375 C296.72757812 148.01070312 296.36921875 148.49796875 296 149 C295.34 149 294.68 149 294 149 C293.731875 148.26136719 293.46375 147.52273438 293.1875 146.76171875 C285.79949484 127.63553433 272.52046744 115.43608395 254.0625 107.25390625 C240.85997935 101.84828236 226.13256676 102.8591462 212.109375 102.90234375 C210.31048624 102.90421283 208.51159697 102.90563441 206.71270752 102.90663147 C202.01762443 102.91041809 197.32257312 102.92021467 192.62750244 102.93133545 C187.82068308 102.94163323 183.0138585 102.94614688 178.20703125 102.95117188 C168.80467367 102.96184106 159.40233949 102.97887018 150 103 C151.26811826 104.75126202 152.53728342 106.50176599 153.80688477 108.25195312 C154.51353775 109.22684692 155.22019073 110.20174072 155.94825745 111.20617676 C158.52312409 114.71232926 161.19965553 118.12060513 163.9375 121.5 C164.44909668 122.13599121 164.96069336 122.77198242 165.48779297 123.42724609 C168.51049454 127.17894661 171.56203957 130.90607813 174.625 134.625 C177.79457104 138.47865112 180.85569653 142.40331857 183.875 146.375 C187.77493865 151.49900143 191.85101468 156.43955535 196.0324707 161.33544922 C202.24849098 168.61666383 208.12033828 176.14662655 213.93115234 183.75292969 C217.98123942 189.02710451 222.17784569 194.17783073 226.38452148 199.32739258 C229.75219467 203.45277972 233.07011531 207.60659082 236.296875 211.84375 C237.64022502 213.54450508 239.03747877 215.2026824 240.453125 216.84375 C241.29359375 217.8234375 242.1340625 218.803125 243 219.8125 C243.78375 220.70582031 244.5675 221.59914063 245.375 222.51953125 C247 225 247 225 247.03515625 227.17578125 C245.58579792 229.72993348 244.13597493 230.24091665 241.4375 231.375 C240.43460938 231.80296875 239.43171875 232.2309375 238.3984375 232.671875 C235.45807305 233.82098295 232.49994689 234.8849422 229.52124023 235.92919922 C213.29741936 241.6923663 198.61571088 250.54257257 185 261 C183.68515625 261.99773437 183.68515625 261.99773437 182.34375 263.015625 C157.55691241 282.31170743 138.12997292 306.92226382 125.80859375 335.8125 C123.60882505 340.90570096 121.2957554 345.94933811 119 351 C95.9 351 72.8 351 49 351 C49.77909392 347.1045304 50.13577712 345.35173177 52.00390625 342.1796875 C52.41060547 341.48520508 52.81730469 340.79072266 53.23632812 340.07519531 C53.8927832 338.98609863 53.8927832 338.98609863 54.5625 337.875 C55.01431641 337.11799805 55.46613281 336.36099609 55.93164062 335.58105469 C59.62965748 329.46028913 63.63844018 323.66836304 68 318 C68.75796875 316.98808594 69.5159375 315.97617187 70.296875 314.93359375 C82.87348449 298.21974141 96.52672156 282.95897904 113 270 C114.19689453 269.01966797 114.19689453 269.01966797 115.41796875 268.01953125 C131.35935636 254.99076259 148.62549389 243.80816151 167.1875 234.875 C168.3170813 234.32573853 168.3170813 234.32573853 169.46948242 233.76538086 C174.53784722 231.4065228 179.50364884 229.99816002 185 229 C180.3532927 223.3083982 175.69480373 217.62684371 171.01977539 211.95849609 C164.19092838 203.67796565 157.40334387 195.36519586 150.64404297 187.02783203 C147.76417748 183.47568431 144.88231831 179.92515751 142 176.375 C141.47204834 175.72394287 140.94409668 175.07288574 140.40014648 174.40209961 C139.40633895 173.17793617 138.41104938 171.95497394 137.4140625 170.73339844 C136.46752237 169.57310235 135.52483485 168.40965324 134.5859375 167.24316406 C132.17442073 164.17469642 132.17442073 164.17469642 129 162 C128.62875 161.175 128.2575 160.35 127.875 159.5 C125.7700134 155.57069168 123.23452447 152.7505916 120.23828125 149.48046875 C116.3159543 145.13373644 112.68723614 140.54590757 109 136 C108.2678125 135.113125 107.535625 134.22625 106.78125 133.3125 C102.73045833 128.40590727 98.7866613 123.43984066 94.9375 118.375 C91.45229824 113.79469743 87.80383877 109.43538694 83.93359375 105.17578125 C79.74009558 100.45703684 75.87247281 95.45668432 72.046875 90.4375 C71.43328125 89.633125 70.8196875 88.82875 70.1875 88 C69.64480469 87.278125 69.10210937 86.55625 68.54296875 85.8125 C66.94055891 83.76248395 66.94055891 83.76248395 64 82 C62.98133771 80.34467377 61.98399404 78.67616631 61 77 C59.53162215 75.16178817 58.02824887 73.35124583 56.5 71.5625 C52.82058188 67.21637348 49.24524306 62.80794202 45.75 58.3125 C41.00793683 52.22418754 36.12095294 46.26576396 31.19677734 40.32421875 C27.51728639 35.87375804 23.91500355 31.37445348 20.375 26.8125 C16.07024389 21.26844746 11.57685866 15.91196344 6.97021484 10.61645508 C0 2.59727848 0 2.59727848 0 0 Z " fill="#0B1C32" transform="translate(93,120)"/>
<path d="M0 0 C1.4071143 2.60240494 2.50970066 5.00725034 3.5625 7.75 C3.86696045 8.5140918 4.1714209 9.27818359 4.48510742 10.06542969 C6.66408978 15.69823715 8.24867524 21.32870663 9.39453125 27.265625 C9.91741701 29.98080014 9.91741701 29.98080014 10.94921875 32.359375 C19.79538608 54.58989216 17.82777542 84.87046345 14 108 C13.83564453 109.43085938 13.83564453 109.43085938 13.66796875 110.890625 C11.08088252 131.2461606 1.68041686 152.26580454 -10 169 C-10.61488281 169.88816406 -11.22976563 170.77632812 -11.86328125 171.69140625 C-18.40246168 180.90391895 -25.18544535 189.87308047 -34 197 C-35.11375 198.1446875 -35.11375 198.1446875 -36.25 199.3125 C-53.55777666 216.2269181 -77.09460511 229.46701681 -100 237 C-101.05743408 237.35384766 -101.05743408 237.35384766 -102.13623047 237.71484375 C-104.2746017 238.42619224 -106.41682518 239.12351497 -108.5625 239.8125 C-109.20525879 240.01979736 -109.84801758 240.22709473 -110.51025391 240.44067383 C-114.65912301 241.72588008 -118.70829159 242.39655394 -123 243 C-124.09469101 243.31711945 -125.18938202 243.63423889 -126.31724548 243.96096802 C-140.42123526 247.94018966 -155.14059321 247.26351847 -169.65234375 247.1953125 C-172.00745014 247.19157483 -174.36255811 247.18873143 -176.71766663 247.18673706 C-182.86766984 247.17915992 -189.01757615 247.15956332 -195.1675415 247.1373291 C-201.46259247 247.11674205 -207.75765933 247.10770804 -214.05273438 247.09765625 C-226.36853178 247.076311 -238.68425778 247.0422479 -251 247 C-250.01815172 238.29316914 -250.01815172 238.29316914 -247.625 234 C-246.02755437 231.09911713 -244.708697 228.27142516 -243.60546875 225.15625 C-242.07318371 220.96800423 -240.02537863 217.28657255 -237.6875 213.5 C-237.2857959 212.84346436 -236.8840918 212.18692871 -236.47021484 211.51049805 C-231.32261425 203.18361864 -225.36208248 196.07152781 -218.68359375 188.9296875 C-216.9011296 186.98376593 -215.17894093 184.98079891 -213.5234375 182.92578125 C-209.55757025 178.32758532 -204.73074058 174.92758472 -199.85644531 171.36181641 C-198.62832463 170.46091462 -197.40616716 169.55182125 -196.19042969 168.63427734 C-182.99957461 158.70404338 -168.41552487 151.99655867 -152.9375 146.375 C-132.52039927 138.69200246 -118.19094024 122.55010349 -109.0625 103.125 C-106.82214384 97.8110324 -105.00921931 92.38676663 -103.36328125 86.86328125 C-96.84555013 65.87844753 -81.09670746 48.47327884 -65 34 C-64.34 34 -63.68 34 -63 34 C-63 33.34 -63 32.68 -63 32 C-60.9921772 30.38580811 -58.98874752 28.9021658 -56.875 27.4375 C-56.24263428 26.99422363 -55.61026855 26.55094727 -54.95874023 26.09423828 C-11.08432234 -4.44553123 -11.08432234 -4.44553123 0 0 Z " fill="#07111F" transform="translate(492,225)"/>
<path d="M0 0 C1.484375 1.7421875 1.484375 1.7421875 2.75 3.875 C3.17796875 4.57367188 3.6059375 5.27234375 4.046875 5.9921875 C5 8 5 8 5 11 C4.1028125 11.268125 3.205625 11.53625 2.28125 11.8125 C-19.21693767 18.56399696 -41.9187155 30.48160246 -57.76171875 46.81640625 C-59 48 -59 48 -61 48 C-61.40508789 48.898396 -61.40508789 48.898396 -61.81835938 49.81494141 C-62.9953623 51.99142409 -64.10680782 53.28768262 -65.90625 54.9609375 C-66.48084961 55.50830566 -67.05544922 56.05567383 -67.64746094 56.61962891 C-68.25879883 57.19890137 -68.87013672 57.77817383 -69.5 58.375 C-77.16551136 65.82087487 -84.50212979 74.19081498 -89 84 C-90.32 83.67 -91.64 83.34 -93 83 C-93.75967037 75.19931072 -92.52888125 70.8335543 -87.75 64.6875 C-87.21004395 63.96038818 -86.67008789 63.23327637 -86.11376953 62.48413086 C-80.86866434 55.55022042 -75.08376792 49.19756198 -69 43 C-68.14535156 42.10667969 -67.29070312 41.21335938 -66.41015625 40.29296875 C-52.95683655 26.4570902 -37.15612621 15.83556201 -20.375 6.4375 C-19.65368896 6.03217041 -18.93237793 5.62684082 -18.18920898 5.20922852 C-5.19085483 -1.90176895 -5.19085483 -1.90176895 0 0 Z " fill="#15263D" transform="translate(482,206)"/>
<path d="M0 0 C0.62671592 3.72856307 0.4517271 6.48806614 -1 10 C-4.778995 13.69039335 -9.60162937 16.18834151 -14.12646484 18.84814453 C-17.43459801 20.88199549 -20.37632403 23.35109453 -23.36328125 25.8203125 C-25 27 -25 27 -27 27 C-27 27.66 -27 28.32 -27 29 C-28.36328125 30.33984375 -28.36328125 30.33984375 -30.3125 31.9375 C-39.85693401 40.09917149 -47.77773837 48.78183725 -55 59 C-55.99 58.67 -56.98 58.34 -58 58 C-58 57.34 -58 56.68 -58 56 C-59.32 56.66 -60.64 57.32 -62 58 C-57.81309802 45.86243841 -46.56876075 36.19718473 -37.54272461 27.49707031 C-36.15106948 26.14659884 -34.78480784 24.77007824 -33.421875 23.390625 C-24.81660549 14.89639122 -15.23748109 8.32515476 -5 2 C-2 0 -2 0 0 0 Z " fill="#EBEDF0" transform="translate(456,230)"/>
<path d="M0 0 C1.98 0 3.96 0 6 0 C6.32668558 3.5476012 6.44932545 5.38321762 4.3125 8.31640625 C3.549375 9.05761719 2.78625 9.79882812 2 10.5625 C-3.41781057 16.18637626 -7.12270576 22.25963563 -11 29 C-12.32 28.67 -13.64 28.34 -15 28 C-16.07055381 22.83755161 -15.691767 18.79326003 -12.9140625 14.2890625 C-12.04489465 13.01299437 -11.15643804 11.74986908 -10.25 10.5 C-9.80736816 9.88882324 -9.36473633 9.27764648 -8.90869141 8.64794922 C-6.54867341 5.55870732 -4.59784927 3.4910006 -1 2 C-0.67 1.34 -0.34 0.68 0 0 Z " fill="#111C2B" transform="translate(404,261)"/>
<path d="M0 0 C42.24 0 84.48 0 128 0 C128 0.33 128 0.66 128 1 C89.06 1 50.12 1 10 1 C9.67 1.66 9.34 2.32 9 3 C9 2.34 9 1.68 9 1 C8.01 1 7.02 1 6 1 C6.33 2.65 6.66 4.3 7 6 C7.33 5.34 7.66 4.68 8 4 C8.79953138 7.28696233 9.09658936 8.71023192 8 12 C6.66081194 10.37982158 5.3288031 8.75370657 4 7.125 C3.2575 6.22007813 2.515 5.31515625 1.75 4.3828125 C0 2 0 2 0 0 Z " fill="#576578" transform="translate(93,120)"/>
<path d="M0 0 C0 0.33 0 0.66 0 1 C-1.67618408 1.03758423 -1.67618408 1.03758423 -3.38623047 1.07592773 C-7.62458332 1.17175631 -11.86283701 1.27151111 -16.10107422 1.37231445 C-17.91810754 1.41501362 -19.73516459 1.45671761 -21.55224609 1.49731445 C-33.71920468 1.77001054 -45.85323969 2.24349613 -58 3 C-58 3.66 -58 4.32 -58 5 C-59.98 5 -61.96 5 -64 5 C-64.66 3.68 -65.32 2.36 -66 1 C-44.0044536 -0.2279622 -22.02064624 -0.10378812 0 0 Z " fill="#525F6F" transform="translate(289,193)"/>
<path d="M0 0 C0.33 0.66 0.66 1.32 1 2 C0.195625 2.763125 -0.60875 3.52625 -1.4375 4.3125 C-4.16799024 6.79430898 -4.16799024 6.79430898 -5 10 C-6.33333333 10.66666667 -7.66666667 11.33333333 -9 12 C-9.825 12.886875 -10.65 13.77375 -11.5 14.6875 C-12.325 15.450625 -13.15 16.21375 -14 17 C-16.3125 16.8125 -16.3125 16.8125 -18 16 C-13.18369326 9.37757824 -6.90279693 4.31424808 0 0 Z " fill="#212F41" transform="translate(292,397)"/>
<path d="M0 0 C2.67318976 5.16816686 2.98463588 8.20158873 2 14 C1.236875 13.95875 0.47375 13.9175 -0.3125 13.875 C-3.22718416 13.77919176 -3.22718416 13.77919176 -6 16 C-4.25192871 10.53262809 -2.34205919 5.24175152 0 0 Z " fill="#E4E7EA" transform="translate(220,450)"/>
<path d="M0 0 C0.33 1.32 0.66 2.64 1 4 C2.65 4.33 4.3 4.66 6 5 C2.32740617 7.44839588 -0.54648201 9 -5 9 C-5.66 8.01 -6.32 7.02 -7 6 C-7.66 5.34 -8.32 4.68 -9 4 C-6.03 2.68 -3.06 1.36 0 0 Z " fill="#E1E4E8" transform="translate(475,199)"/>
<path d="M0 0 C1 3 1 3 0.125 4.875 C-0.24625 5.57625 -0.6175 6.2775 -1 7 C-1.37668344 8.65740715 -1.72057545 10.32345271 -2 12 C-4.98241547 12.77321882 -7.97580475 13.41196203 -11 14 C-9.42219077 10.28954753 -7.09296752 7.70093616 -4.375 4.75 C-3.55773437 3.85796875 -2.74046875 2.9659375 -1.8984375 2.046875 C-1.27195312 1.37140625 -0.64546875 0.6959375 0 0 Z " fill="#1B2B3F" transform="translate(273,414)"/>
<path d="M0 0 C1.65 0 3.3 0 5 0 C5.66 1.98 6.32 3.96 7 6 C7.33 5.34 7.66 4.68 8 4 C8.79953138 7.28696233 9.09658936 8.71023192 8 12 C6.66081194 10.37982158 5.3288031 8.75370657 4 7.125 C3.2575 6.22007813 2.515 5.31515625 1.75 4.3828125 C0 2 0 2 0 0 Z " fill="#203048" transform="translate(93,120)"/>
<path d="M0 0 C0.66 0.33 1.32 0.66 2 1 C2 1.99 2 2.98 2 4 C1.01 4.495 1.01 4.495 0 5 C-0.99 6.485 -0.99 6.485 -2 8 C-4.1640625 8.51171875 -4.1640625 8.51171875 -6.625 8.6875 C-7.44226563 8.75324219 -8.25953125 8.81898438 -9.1015625 8.88671875 C-9.72804688 8.92410156 -10.35453125 8.96148437 -11 9 C-7.56638098 5.36440339 -4.2026393 2.63886654 0 0 Z " fill="#243143" transform="translate(304,388)"/>
<path d="M0 0 C0.33 0 0.66 0 1 0 C1.3183515 4.0589816 1.39717586 6.3474968 -0.75 9.875 C-2.96160897 11.96374181 -4.02750614 12.68151851 -7 13 C-5.37621488 8.27626146 -2.89006982 4.05818166 0 0 Z " fill="#212F41" transform="translate(261,428)"/>
<path d="M0 0 C0.33 0.66 0.66 1.32 1 2 C0.360625 2.763125 -0.27875 3.52625 -0.9375 4.3125 C-3.14232781 6.88246713 -3.14232781 6.88246713 -4 10 C-4.33 9.34 -4.66 8.68 -5 8 C-7.99332739 8.9977758 -8.94766315 9.7522025 -11 12 C-11.66 11.67 -12.32 11.34 -13 11 C-11.21079529 9.3514184 -9.4187995 7.70606879 -7.625 6.0625 C-6.86316406 5.35963867 -6.86316406 5.35963867 -6.0859375 4.64257812 C-2.2265625 1.11328125 -2.2265625 1.11328125 0 0 Z " fill="#2B3849" transform="translate(210,387)"/>
<path d="M0 0 C1.32 0.66 2.64 1.32 4 2 C3.67 2.66 3.34 3.32 3 4 C2.34 4 1.68 4 1 4 C1.639375 5.11375 2.27875 6.2275 2.9375 7.375 C4.00526106 9.23497087 5.04071468 11.08142937 6 13 C4.0625 12.6875 4.0625 12.6875 2 12 C1.67 11.01 1.34 10.02 1 9 C0.34 8.67 -0.32 8.34 -1 8 C-1.75 6.1875 -1.75 6.1875 -2 4 C-1.0625 1.75 -1.0625 1.75 0 0 Z " fill="#20344B" transform="translate(154,145)"/>
<path d="M0 0 C0.33 0 0.66 0 1 0 C1.33 1.65 1.66 3.3 2 5 C3.32 5 4.64 5 6 5 C5.34 6.98 4.68 8.96 4 11 C2.68 10.67 1.36 10.34 0 10 C0 6.7 0 3.4 0 0 Z " fill="#383F4A" transform="translate(389,279)"/>
<path d="M0 0 C0.66 0.33 1.32 0.66 2 1 C-4.73076923 9.65384615 -4.73076923 9.65384615 -8.75 10.75 C-9.86375 10.87375 -9.86375 10.87375 -11 11 C-7.33333333 7.33333333 -3.66666667 3.66666667 0 0 Z " fill="#303C49" transform="translate(431,232)"/>
<path d="M0 0 C0.99 0 1.98 0 3 0 C3.3125 2.3125 3.3125 2.3125 3 5 C0.6167054 6.81883009 -0.95818337 8 -4 8 C-2.25 2.25 -2.25 2.25 0 0 Z " fill="#F0F3F5" transform="translate(467,204)"/>
<path d="M0 0 C2.25 0 2.25 0 5 1 C6.27224195 2.96227148 7.18863211 4.94015444 8.10546875 7.08984375 C8.95134743 9.17833477 8.95134743 9.17833477 11 11 C10.01 11 9.02 11 8 11 C5.95703125 8.84765625 5.95703125 8.84765625 3.8125 6.0625 C3.09707031 5.14597656 2.38164062 4.22945312 1.64453125 3.28515625 C0 1 0 1 0 0 Z " fill="#24354B" transform="translate(128,164)"/>
<path d="M0 0 C0 3.77910478 -0.99703962 4.46106101 -3.5 7.1875 C-4.1496875 7.90292969 -4.799375 8.61835938 -5.46875 9.35546875 C-5.9740625 9.89816406 -6.479375 10.44085938 -7 11 C-7.99 10.67 -8.98 10.34 -10 10 C-6.7 6.7 -3.4 3.4 0 0 Z " fill="#363F4A" transform="translate(367,352)"/>
<path d="M0 0 C1.32 1.32 2.64 2.64 4 4 C2.35 5.65 0.7 7.3 -1 9 C0.65 9 2.3 9 4 9 C4 9.33 4 9.66 4 10 C2.02 10 0.04 10 -2 10 C-1.125 2.25 -1.125 2.25 0 0 Z " fill="#354254" transform="translate(243,462)"/>
<path d="M0 0 C6.75 0.75 6.75 0.75 9 3 C3.06 3.495 3.06 3.495 -3 4 C-2.67 3.34 -2.34 2.68 -2 2 C-1.34 2 -0.68 2 0 2 C0 1.34 0 0.68 0 0 Z " fill="#202933" transform="translate(359,466)"/>
<path d="M0 0 C0 0.66 0 1.32 0 2 C-0.99 2 -1.98 2 -3 2 C-3 3.65 -3 5.3 -3 7 C-5.475 6.01 -5.475 6.01 -8 5 C-5.96115496 0.48541456 -5.19128917 0 0 0 Z " fill="#08182C" transform="translate(426,242)"/>
<path d="M0 0 C0.66 0.99 1.32 1.98 2 3 C1.01 3.495 1.01 3.495 0 4 C-1.04808041 5.97522846 -2.0520411 7.97481509 -3 10 C-3.99 10 -4.98 10 -6 10 C-4.6302836 6.00499382 -2.74277578 3.19990508 0 0 Z " fill="#CFD5DB" transform="translate(235,425)"/>
<path d="M0 0 C0 0.99 0 1.98 0 3 C-0.7425 2.79375 -1.485 2.5875 -2.25 2.375 C-5.41784763 1.94302078 -6.25412747 2.58277547 -9 4 C-11.12109375 3.5625 -11.12109375 3.5625 -13 3 C-11.5903653 2.29819469 -10.17192359 1.61406042 -8.75 0.9375 C-7.96109375 0.55464844 -7.1721875 0.17179688 -6.359375 -0.22265625 C-3.74006478 -1.08564091 -2.55144824 -0.93045933 0 0 Z " fill="#445364" transform="translate(482,206)"/>
<path d="M0 0 C0 3.76603821 -1.07407243 4.77142649 -3.375 7.6875 C-4.00148437 8.49574219 -4.62796875 9.30398438 -5.2734375 10.13671875 C-5.84320313 10.75160156 -6.41296875 11.36648438 -7 12 C-7.66 12 -8.32 12 -9 12 C-7.55575365 8.76138697 -5.74227753 6.38030837 -3.375 3.75 C-2.74335938 3.04359375 -2.11171875 2.3371875 -1.4609375 1.609375 C-0.97882813 1.07828125 -0.49671875 0.5471875 0 0 Z " fill="#3E4A59" transform="translate(183,411)"/>
<path d="M0 0 C0.33 1.32 0.66 2.64 1 4 C0.34 4 -0.32 4 -1 4 C-1 4.66 -1 5.32 -1 6 C-2.95927063 7.7143618 -4.95880212 9.38405168 -7 11 C-7.66 10.67 -8.32 10.34 -9 10 C-6.03 6.7 -3.06 3.4 0 0 Z " fill="#CED4DC" transform="translate(255,400)"/>
<path d="M0 0 C0.99 0.99 1.98 1.98 3 3 C2.67 3.99 2.34 4.98 2 6 C1.01 6.33 0.02 6.66 -1 7 C-1.99 5.68 -2.98 4.36 -4 3 C-2.68 2.01 -1.36 1.02 0 0 Z " fill="#192C44" transform="translate(173,212)"/>
<path d="M0 0 C0.33 1.32 0.66 2.64 1 4 C0.34 4 -0.32 4 -1 4 C-0.67 4.99 -0.34 5.98 0 7 C-1.3125 9.1875 -1.3125 9.1875 -3 11 C-3.66 11 -4.32 11 -5 11 C-3.77472971 6.94718288 -2.30119506 3.55639236 0 0 Z " fill="#C7CED5" transform="translate(227,437)"/>
<path d="M0 0 C-5.29230769 4.06153846 -5.29230769 4.06153846 -8.875 3.75 C-9.57625 3.5025 -10.2775 3.255 -11 3 C-7.68381684 -0.31618316 -4.50821267 -1.6697084 0 0 Z " fill="#2A3442" transform="translate(336,375)"/>
<path d="M0 0 C0.66 0.33 1.32 0.66 2 1 C0.35 2.65 -1.3 4.3 -3 6 C-4.32 5.01 -5.64 4.02 -7 3 C-4.69631264 1.93347808 -2.35981813 0.93578995 0 0 Z " fill="#212D3C" transform="translate(343,370)"/>
<path d="M0 0 C3.31012244 3.31012244 3.50351065 4.53159589 4 9 C3.01 9.33 2.02 9.66 1 10 C0.67 6.7 0.34 3.4 0 0 Z " fill="#282D36" transform="translate(403,237)"/>
<path d="M0 0 C1.046875 2.06640625 1.046875 2.06640625 1.75 4.5625 C1.99234375 5.38878906 2.2346875 6.21507812 2.484375 7.06640625 C2.65453125 7.70449219 2.8246875 8.34257812 3 9 C2.34 8.67 1.68 8.34 1 8 C1 7.01 1 6.02 1 5 C0.34 5 -0.32 5 -1 5 C-1.66 4.01 -2.32 3.02 -3 2 C-5.05003955 0.80767387 -5.05003955 0.80767387 -7 0 C-3.88620301 -1.03793233 -2.92974344 -1.29218359 0 0 Z " fill="#44484D" transform="translate(492,225)"/>
<path d="M0 0 C2.97 1.65 5.94 3.3 9 5 C8.01 5.66 7.02 6.32 6 7 C4 6 2 5 0 4 C0 2.68 0 1.36 0 0 Z " fill="#1D2C41" transform="translate(179,177)"/>
<path d="M0 0 C0.66 0.33 1.32 0.66 2 1 C1 4 1 4 -2 6 C-4.1875 5.625 -4.1875 5.625 -6 5 C-4.02 3.35 -2.04 1.7 0 0 Z " fill="#303B4C" transform="translate(224,376)"/>
<path d="M0 0 C0.66 0 1.32 0 2 0 C4.1519437 3.22791555 4.20086443 4.28400809 4 8 C3.01 8 2.02 8 1 8 C0.2341972 5.22396483 0 2.89326812 0 0 Z " fill="#091629" transform="translate(296,294)"/>
<path d="M0 0 C2 4 2 4 1.625 6.25 C1.41875 6.8275 1.2125 7.405 1 8 C0.34 7.67 -0.32 7.34 -1 7 C-1 7.66 -1 8.32 -1 9 C-1.66 9 -2.32 9 -3 9 C-2.01 6.03 -1.02 3.06 0 0 Z " fill="#253447" transform="translate(249,448)"/>
<path d="M0 0 C-1.28062485 1.7074998 -2.61767557 3.37373596 -4 5 C-4.66 5 -5.32 5 -6 5 C-6 4.34 -6 3.68 -6 3 C-6.66 2.34 -7.32 1.68 -8 1 C-5.29120665 -0.35439668 -2.99066732 -0.06501451 0 0 Z " fill="#182C45" transform="translate(473,210)"/>
<path d="M0 0 C0.66 0.33 1.32 0.66 2 1 C0.625 3.5 0.625 3.5 -1 6 C-1.66 6 -2.32 6 -3 6 C-3 5.34 -3 4.68 -3 4 C-3.99 3.67 -4.98 3.34 -6 3 C-4.03533587 1.93224776 -2.03144641 0.93446535 0 0 Z " fill="#CCD2D8" transform="translate(312,359)"/>
<path d="M0 0 C1.33332095 2.6666419 0.67102033 4.16680303 0 7 C-1.98 7.33 -3.96 7.66 -6 8 C-4.02 5.36 -2.04 2.72 0 0 Z " fill="#313842" transform="translate(408,279)"/>
<path d="M0 0 C0.93423645 3.01031744 1.04449911 3.86650268 0 7 C-2.0625 7.6875 -2.0625 7.6875 -4 8 C-2.87548273 5.0280615 -1.77706209 2.66559313 0 0 Z " fill="#303D4F" transform="translate(258,433)"/>
<path d="M0 0 C2 2 2 2 2.125 5.625 C2.08375 6.73875 2.0425 7.8525 2 9 C0.68 7.68 -0.64 6.36 -2 5 C-1.34 3.35 -0.68 1.7 0 0 Z " fill="#07101D" transform="translate(402,238)"/>
<path d="M0 0 C0.86625 0.3403125 0.86625 0.3403125 1.75 0.6875 C0.43 2.0075 -0.89 3.3275 -2.25 4.6875 C-3.57 4.0275 -4.89 3.3675 -6.25 2.6875 C-2.80384615 -0.38942308 -2.80384615 -0.38942308 0 0 Z " fill="#263545" transform="translate(446.25,223.3125)"/>
<path d="M0 0 C1.65 0 3.3 0 5 0 C5.33 0.99 5.66 1.98 6 3 C5.67 3.66 5.34 4.32 5 5 C4.01 4.67 3.02 4.34 2 4 C2 3.01 2 2.02 2 1 C1.34 0.67 0.68 0.34 0 0 Z " fill="#112238" transform="translate(215,193)"/>
<path d="M0 0 C0.33 0.66 0.66 1.32 1 2 C3.01669827 3.13350534 3.01669827 3.13350534 5 4 C4 5 4 5 1.4375 5.0625 C0.2309375 5.0315625 0.2309375 5.0315625 -1 5 C-0.67 3.35 -0.34 1.7 0 0 Z " fill="#081524" transform="translate(330,346)"/>
<path d="M0 0 C0.8125 1.6875 0.8125 1.6875 1 4 C-1.4375 6.75 -1.4375 6.75 -4 9 C-2.94124926 5.59687262 -1.99097846 2.98646769 0 0 Z " fill="#3B424D" transform="translate(396,295)"/>
<path d="M0 0 C4.875 4.625 4.875 4.625 6 8 C4.68 8 3.36 8 2 8 C1.33333333 5.33333333 0.66666667 2.66666667 0 0 Z " fill="#3B4757" transform="translate(255,240)"/>
<path d="M0 0 C2.9375 0.375 2.9375 0.375 6 1 C6.33 1.66 6.66 2.32 7 3 C5.02 3.33 3.04 3.66 1 4 C0.67 2.68 0.34 1.36 0 0 Z " fill="#0C1623" transform="translate(394,136)"/>
<path d="M0 0 C0.33 0.99 0.66 1.98 1 3 C-3.75 7.875 -3.75 7.875 -6 9 C-4.47291037 5.56404834 -2.40072955 2.88087546 0 0 Z " fill="#495663" transform="translate(268,419)"/>
<path d="M0 0 C-0.33 0.99 -0.66 1.98 -1 3 C-3.5625 4.1875 -3.5625 4.1875 -6 5 C-5.6875 3.0625 -5.6875 3.0625 -5 1 C-2 0 -2 0 0 0 Z " fill="#0A1B34" transform="translate(300,395)"/>
<path d="M0 0 C0.66 0 1.32 0 2 0 C2 0.66 2 1.32 2 2 C3.65 2 5.3 2 7 2 C6.34 3.32 5.68 4.64 5 6 C3.31237149 4.3545622 1.6459651 2.68711423 0 1 C0 0.67 0 0.34 0 0 Z " fill="#253246" transform="translate(240,301)"/>
<path d="M0 0 C4.875 4.75 4.875 4.75 6 7 C5.01 7.33 4.02 7.66 3 8 C0 2.25 0 2.25 0 0 Z " fill="#3A444F" transform="translate(298,294)"/>
<path d="M0 0 C0.66 0.33 1.32 0.66 2 1 C1.2884375 1.61875 1.2884375 1.61875 0.5625 2.25 C-1.16266518 4.182185 -1.56584875 5.48192275 -2 8 C-2.99 7.01 -3.98 6.02 -5 5 C-3.35 3.35 -1.7 1.7 0 0 Z " fill="#0B192E" transform="translate(433,232)"/>
</svg>
